<svg width="276" height="297" viewBox="0 0 276 297" fill="none" xmlns="http://www.w3.org/2000/svg">
<path d="M123.374 38.36H6.5661C4.82465 38.36 3.15455 37.6683 1.92316 36.4369C0.691767 35.2055 0 33.5354 0 31.7939C0 30.0525 0.691767 28.3824 1.92316 27.151C3.15455 25.9196 4.82465 25.2278 6.5661 25.2278H123.374C125.116 25.2278 126.786 25.9196 128.017 27.151C129.249 28.3824 129.94 30.0525 129.94 31.7939C129.94 33.5354 129.249 35.2055 128.017 36.4369C126.786 37.6683 125.116 38.36 123.374 38.36V38.36Z" fill="#CCCCCC"/>
<path d="M268.52 38.36H151.712C149.971 38.36 148.301 37.6683 147.069 36.4369C145.838 35.2055 145.146 33.5354 145.146 31.7939C145.146 30.0525 145.838 28.3824 147.069 27.151C148.301 25.9196 149.971 25.2278 151.712 25.2278H268.52C270.262 25.2278 271.932 25.9196 273.163 27.151C274.395 28.3824 275.087 30.0525 275.087 31.7939C275.087 33.5354 274.395 35.2055 273.163 36.4369C271.932 37.6683 270.262 38.36 268.52 38.36V38.36Z" fill="#CCCCCC"/>
<path d="M268.52 63.2422H65.3158C63.5743 63.2422 61.9042 62.5505 60.6728 61.3191C59.4414 60.0877 58.7496 58.4176 58.7496 56.6761C58.7496 54.9347 59.4414 53.2645 60.6728 52.0331C61.9042 50.8018 63.5743 50.11 65.3158 50.11H268.52C270.262 50.11 271.932 50.8018 273.163 52.0331C274.395 53.2645 275.087 54.9347 275.087 56.6761C275.087 58.4176 274.395 60.0877 273.163 61.3191C271.932 62.5505 270.262 63.2422 268.52 63.2422Z" fill="#CCCCCC"/>
<path d="M123.374 13.1323H6.5661C4.82606 13.1301 3.15804 12.4374 1.92841 11.2062C0.698768 9.97507 0.00805664 8.30618 0.00805664 6.56614C0.00805664 4.82609 0.698768 3.15719 1.92841 1.92603C3.15804 0.694874 4.82606 0.00215236 6.5661 5.00067e-06H123.374C124.237 -0.00105996 125.092 0.167985 125.889 0.497487C126.687 0.82699 127.412 1.31048 128.022 1.92031C128.633 2.53014 129.117 3.25433 129.448 4.0515C129.778 4.84867 129.948 5.70318 129.948 6.56614C129.948 7.4291 129.778 8.28359 129.448 9.08075C129.117 9.87792 128.633 10.6021 128.022 11.212C127.412 11.8218 126.687 12.3053 125.889 12.6348C125.092 12.9643 124.237 13.1333 123.374 13.1323V13.1323Z" fill="#CCCCCC"/>
<path d="M187.653 13.4779H154.477C152.736 13.4779 151.065 12.7861 149.834 11.5547C148.603 10.3233 147.911 8.65316 147.911 6.91171C147.911 5.17026 148.603 3.50014 149.834 2.26875C151.065 1.03736 152.736 0.345581 154.477 0.345581H187.653C189.395 0.345581 191.065 1.03736 192.296 2.26875C193.528 3.50014 194.219 5.17026 194.219 6.91171C194.219 8.65316 193.528 10.3233 192.296 11.5547C191.065 12.7861 189.395 13.4779 187.653 13.4779Z" fill="#CCCCCC"/>
<path d="M39.7424 63.2423H6.5661C4.82606 63.2401 3.15804 62.5474 1.92841 61.3162C0.698768 60.0851 0.00805664 58.4162 0.00805664 56.6761C0.00805664 54.9361 0.698768 53.2672 1.92841 52.036C3.15804 50.8049 4.82606 50.1121 6.5661 50.11H39.7424C40.6053 50.1089 41.4601 50.278 42.2576 50.6075C43.0552 50.937 43.78 51.4205 44.3906 52.0303C45.0011 52.6401 45.4856 53.3643 45.816 54.1615C46.1465 54.9587 46.3167 55.8132 46.3167 56.6761C46.3167 57.5391 46.1465 58.3936 45.816 59.1907C45.4856 59.9879 45.0011 60.7121 44.3906 61.3219C43.78 61.9318 43.0552 62.4153 42.2576 62.7448C41.4601 63.0743 40.6053 63.2433 39.7424 63.2423Z" fill="#CCCCCC"/>
<path d="M123.374 271.36H6.5661C4.82465 271.36 3.15455 270.668 1.92316 269.437C0.691767 268.206 0 266.535 0 264.794C0 263.053 0.691767 261.382 1.92316 260.151C3.15455 258.92 4.82465 258.228 6.5661 258.228H123.374C124.237 258.228 125.09 258.398 125.887 258.728C126.684 259.058 127.407 259.541 128.017 260.151C128.627 260.761 129.111 261.485 129.441 262.281C129.771 263.078 129.94 263.932 129.94 264.794C129.94 265.656 129.771 266.51 129.441 267.307C129.111 268.103 128.627 268.827 128.017 269.437C127.407 270.047 126.684 270.53 125.887 270.86C125.09 271.19 124.237 271.36 123.374 271.36V271.36Z" fill="#CCCCCC"/>
<path d="M268.52 271.36H151.712C149.971 271.36 148.301 270.668 147.069 269.437C145.838 268.206 145.146 266.535 145.146 264.794C145.146 263.053 145.838 261.382 147.069 260.151C148.301 258.92 149.971 258.228 151.712 258.228H268.52C269.383 258.228 270.237 258.398 271.033 258.728C271.83 259.058 272.554 259.541 273.163 260.151C273.773 260.761 274.257 261.485 274.587 262.281C274.917 263.078 275.087 263.932 275.087 264.794C275.087 265.656 274.917 266.51 274.587 267.307C274.257 268.103 273.773 268.827 273.163 269.437C272.554 270.047 271.83 270.53 271.033 270.86C270.237 271.19 269.383 271.36 268.52 271.36V271.36Z" fill="#CCCCCC"/>
<path d="M268.52 296.242H65.3158C63.5743 296.242 61.9042 295.55 60.6728 294.319C59.4414 293.088 58.7496 291.418 58.7496 289.676C58.7496 287.935 59.4414 286.265 60.6728 285.033C61.9042 283.802 63.5743 283.11 65.3158 283.11H268.52C269.383 283.109 270.238 283.278 271.036 283.607C271.833 283.937 272.558 284.42 273.169 285.03C273.779 285.64 274.264 286.364 274.594 287.162C274.925 287.959 275.095 288.813 275.095 289.676C275.095 290.539 274.925 291.394 274.594 292.191C274.264 292.988 273.779 293.712 273.169 294.322C272.558 294.932 271.833 295.415 271.036 295.745C270.238 296.074 269.383 296.243 268.52 296.242Z" fill="#CCCCCC"/>
<path d="M123.374 246.132H6.5661C4.82465 246.132 3.15455 245.44 1.92316 244.209C0.691768 242.978 0 241.308 0 239.566C0 237.825 0.691768 236.155 1.92316 234.923C3.15455 233.692 4.82465 233 6.5661 233H123.374C125.116 233 126.786 233.692 128.017 234.923C129.249 236.155 129.94 237.825 129.94 239.566C129.94 241.308 129.249 242.978 128.017 244.209C126.786 245.44 125.116 246.132 123.374 246.132Z" fill="#CCCCCC"/>
<path d="M187.653 246.478H154.477C152.736 246.478 151.065 245.786 149.834 244.555C148.603 243.323 147.911 241.653 147.911 239.912C147.911 238.17 148.603 236.5 149.834 235.269C151.065 234.037 152.736 233.346 154.477 233.346H187.653C189.395 233.346 191.065 234.037 192.296 235.269C193.528 236.5 194.219 238.17 194.219 239.912C194.219 241.653 193.528 243.323 192.296 244.555C191.065 245.786 189.395 246.478 187.653 246.478V246.478Z" fill="#CCCCCC"/>
<path d="M39.7424 296.242H6.5661C4.82465 296.242 3.15455 295.55 1.92316 294.319C0.691768 293.088 0 291.418 0 289.676C0 287.935 0.691768 286.265 1.92316 285.033C3.15455 283.802 4.82465 283.11 6.5661 283.11H39.7424C40.6053 283.109 41.4601 283.278 42.2576 283.607C43.0552 283.937 43.78 284.42 44.3906 285.03C45.0011 285.64 45.4856 286.364 45.816 287.162C46.1465 287.959 46.3167 288.813 46.3167 289.676C46.3167 290.539 46.1465 291.394 45.816 292.191C45.4856 292.988 45.0011 293.712 44.3906 294.322C43.78 294.932 43.0552 295.415 42.2576 295.745C41.4601 296.074 40.6053 296.243 39.7424 296.242Z" fill="#CCCCCC"/>
<path d="M92.8677 200.867C90.3888 200.873 88.0081 199.899 86.2441 198.157L42.3354 154.798C41.4734 153.947 40.789 152.933 40.3219 151.815C39.8548 150.697 39.6143 149.498 39.6143 148.286C39.6143 147.075 39.8548 145.875 40.3219 144.758C40.789 143.64 41.4734 142.626 42.3354 141.775L86.0667 98.5902C87.8886 96.7998 90.343 95.8002 92.8973 95.8083C95.4516 95.8163 97.8997 96.8314 99.7102 98.6332C101.522 100.45 102.54 102.911 102.54 105.476C102.54 108.042 101.523 110.503 99.7104 112.32L67.2144 144.817C66.2019 145.831 65.6334 147.206 65.6334 148.64C65.6334 150.073 66.2019 151.448 67.2144 152.463L99.5341 184.783C100.854 186.1 101.753 187.78 102.118 189.608C102.482 191.437 102.295 193.333 101.581 195.055C100.868 196.778 99.6583 198.25 98.1071 199.284C96.5558 200.319 94.7323 200.87 92.8677 200.867V200.867Z" fill="#00BF5D"/>
<path d="M162.833 200.867C160.969 200.87 159.145 200.319 157.594 199.284C156.043 198.25 154.833 196.778 154.119 195.055C153.405 193.333 153.219 191.437 153.583 189.608C153.948 187.78 154.847 186.1 156.167 184.783L188.487 152.463C189.499 151.448 190.068 150.073 190.068 148.64C190.068 147.206 189.499 145.831 188.487 144.817L155.99 112.32C155.092 111.421 154.379 110.354 153.893 109.18C153.406 108.006 153.156 106.747 153.156 105.477C153.156 104.206 153.406 102.947 153.893 101.773C154.379 100.599 155.092 99.5319 155.991 98.6332V98.6332C157.801 96.8314 160.249 95.8163 162.804 95.8083C165.358 95.8002 167.812 96.7999 169.634 98.5902L213.365 141.775C214.227 142.626 214.912 143.64 215.379 144.758C215.846 145.875 216.087 147.075 216.087 148.286C216.087 149.498 215.846 150.697 215.379 151.815C214.912 152.933 214.227 153.947 213.365 154.798L169.457 198.157C167.693 199.899 165.312 200.873 162.833 200.867Z" fill="#00BF5D"/>
</svg>
