<svg width="87" height="88" viewBox="0 0 87 88" fill="none" xmlns="http://www.w3.org/2000/svg">
<g filter="url(#filter0_d_11_213)">
<ellipse cx="41.6226" cy="41.8962" rx="39.6226" ry="40" fill="white"/>
</g>
<path d="M78.8691 41.8962C78.8691 62.6644 62.1923 79.4985 41.6227 79.4985C21.053 79.4985 4.37619 62.6644 4.37619 41.8962C4.37619 21.1281 21.053 4.29397 41.6227 4.29397C62.1923 4.29397 78.8691 21.1281 78.8691 41.8962Z" stroke="#D2D2D2" stroke-width="0.224057"/>
<path d="M29.1216 57L23.4343 36.9711H23.2631C23.3139 37.491 23.3646 38.1947 23.4153 39.0824C23.4787 39.97 23.5358 40.9274 23.5865 41.9545C23.6372 42.9816 23.6626 43.9707 23.6626 44.9218V57H17.0053V29.1915H27.0102L32.8116 48.9352H32.9638L38.651 29.1915H48.675V57H41.7704V44.8076C41.7704 43.9327 41.7831 42.9943 41.8085 41.9926C41.8465 40.9781 41.8845 40.0271 41.9226 39.1394C41.9733 38.2391 42.0177 37.529 42.0557 37.0091H41.8845L36.2734 57H29.1216Z" fill="#D2D2D2"/>
<path d="M54.2692 29.1915C56.7927 29.1915 58.8913 29.5022 60.5651 30.1236C62.239 30.7322 63.4943 31.6452 64.3312 32.8626C65.1808 34.0799 65.6056 35.5952 65.6056 37.4085C65.6056 38.5371 65.4154 39.5642 65.035 40.4899C64.6546 41.4156 64.1093 42.2462 63.3992 42.9816C62.7018 43.7044 61.8649 44.3385 60.8885 44.8837L68.9913 57H60.47L54.5736 46.8809H52.6715V57H45.1582V29.1915H54.2692ZM54.1551 34.8788H52.6715V41.2317H54.079C55.2329 41.2317 56.1776 40.9781 56.9131 40.4709C57.6486 39.9637 58.0163 39.057 58.0163 37.7509C58.0163 36.8506 57.712 36.1468 57.1033 35.6396C56.4947 35.1324 55.5119 34.8788 54.1551 34.8788Z" fill="#D2D2D2"/>
<path d="M51.9558 57L50.5863 51.7883H41.5514L40.1439 57H31.8889L40.9618 29.0774H50.9858L60.1728 57H51.9558ZM49.0266 45.6255L47.8283 41.0605C47.7015 40.566 47.5176 39.8622 47.2767 38.9492C47.0358 38.0236 46.7948 37.0725 46.5539 36.0961C46.3257 35.107 46.1481 34.2955 46.0213 33.6614C45.9072 34.2955 45.7424 35.0817 45.5268 36.02C45.3239 36.9457 45.1083 37.865 44.8801 38.778C44.6645 39.691 44.4743 40.4519 44.3095 41.0605L43.1111 45.6255H49.0266Z" fill="black"/>
<defs>
<filter id="filter0_d_11_213" x="0.207547" y="0.103772" width="86.4151" height="87.1698" filterUnits="userSpaceOnUse" color-interpolation-filters="sRGB">
<feFlood flood-opacity="0" result="BackgroundImageFix"/>
<feColorMatrix in="SourceAlpha" type="matrix" values="0 0 0 0 0 0 0 0 0 0 0 0 0 0 0 0 0 0 127 0" result="hardAlpha"/>
<feOffset dx="1.79245" dy="1.79245"/>
<feGaussianBlur stdDeviation="1.79245"/>
<feComposite in2="hardAlpha" operator="out"/>
<feColorMatrix type="matrix" values="0 0 0 0 0 0 0 0 0 0 0 0 0 0 0 0 0 0 0.15 0"/>
<feBlend mode="normal" in2="BackgroundImageFix" result="effect1_dropShadow_11_213"/>
<feBlend mode="normal" in="SourceGraphic" in2="effect1_dropShadow_11_213" result="shape"/>
</filter>
</defs>
</svg>
